<svg xmlns="http://www.w3.org/2000/svg" width="81" height="80" viewBox="0 0 81 80" fill="none">
  <g clip-path="url(#clip0_126_51)">
    <path d="M40.5002 80C62.5312 80 80.5 62.0312 80.5 40.0002C80.5 17.9688 62.5312 0 40.5002 0C18.4689 0 0.5 17.9688 0.5 40.0002C0.5 62.0312 18.4689 80 40.5002 80Z" fill="#FFCA4F"/>
    <path d="M52.3863 63.3333C52.7266 63.4968 62.1813 67.9374 66.8473 60.1964C71.599 52.313 68.1035 52.6132 68.0279 51.9686C67.9523 51.324 74.9471 43.9974 66.4154 38.4899C66.4154 38.4899 56.0485 14.8394 29.3738 26.3946C29.3738 26.3946 21.166 25.2065 17.1704 34.1702C17.1704 34.1702 7.23475 37.8422 11.3385 49.6132C15.4422 61.3843 25.2699 56.0932 25.2699 56.0932C26.6187 63.4288 35.1358 65.2243 41.253 62.0324C41.253 62.0324 43.3051 64.3002 45.7888 63.4361C45.8757 63.0949 46.5543 63.3486 46.1062 62.1918C46.7333 61.2668 48.1568 60.774 50.7049 61.9466C50.8388 62.0571 51.0762 62.2452 51.0396 62.2227L52.3863 63.3333Z" fill="#EC4B53"/>
    <path d="M17.9607 34.4445C17.8446 34.6376 11.43 36.247 10.9778 42.5893C10.2823 52.3467 17.1526 59.2501 25.4157 55.0365C27.1404 61.9711 36.5487 64.5842 41.6598 60.4945C41.6598 60.4945 42.9995 63.8367 46.106 62.1918L46.2576 62.3576C47.0043 62.3473 48.9789 63.5762 50.7048 61.9467C50.8243 62.0454 51.026 62.2056 51.0423 62.2229C51.2864 62.2495 51.6328 62.1428 51.8078 62.2432C62.3607 68.3007 69.2107 57.8743 68.0532 53.702C67.8912 53.1185 67.61 53.015 67.1209 52.7221C67.1209 52.7221 66.9337 51.9832 67.6389 51.1506C70.6331 47.6153 72.1679 42.1206 65.9276 39.0642C59.6073 25.0679 44.1862 19.0196 28.9284 27.151C19.9762 26.6195 18.0615 34.2767 17.9607 34.4445Z" fill="#FF5B61"/>
    <path d="M34.1737 29.2717C33.8696 29.3542 33.5556 29.1748 33.4729 28.8707C33.3903 28.5667 33.5696 28.2526 33.8737 28.1701C33.8871 28.1663 38.3445 26.9151 39.3756 30.5473C40.0143 30.1973 40.9878 29.882 42.1098 30.2595C41.9673 29.0212 42.3248 27.3093 45.0626 26.6056C45.3679 26.5276 45.6787 26.7121 45.7567 27.0176C45.8346 27.3229 45.6501 27.6337 45.3447 27.7117C42.2109 28.5174 43.5312 31.1584 43.535 31.1656L43.5331 31.1667C43.6261 31.3582 43.6073 31.5946 43.4654 31.7724C43.2693 32.0185 42.91 32.0587 42.6642 31.862C41.2509 30.7315 40.0201 31.4335 39.5668 31.7765C39.5501 33.9023 36.6814 34.3812 36.6729 34.3824V34.3823C36.5028 34.4104 36.3223 34.362 36.1873 34.2348C32.8961 31.1376 29.2548 35.0724 29.244 35.0832L29.2437 35.0829C29.0654 35.2729 28.7731 35.3213 28.5387 35.1842C25.2779 33.2729 28.0893 27.5776 28.7468 26.3479C29.1448 26.3613 29.3739 26.3945 29.3739 26.3945C29.5512 26.3174 29.7251 26.2481 29.9012 26.1743C29.9668 26.332 29.9615 26.517 29.8709 26.6763C29.8618 26.6928 26.7611 32.0806 28.7759 33.9467C29.8898 32.9378 33.3806 30.294 36.7426 33.1968C37.2948 33.0542 38.5331 32.6176 38.412 31.5903L38.4096 31.5638C38.0407 28.187 34.1846 29.2685 34.1737 29.2717ZM68.4492 52.3532C68.2261 52.206 68.0443 52.1101 68.0276 51.9685C68.0143 51.8565 68.2142 51.5432 68.5089 51.0734C68.139 49.3098 66.7203 49.3631 65.9478 49.5338C65.6371 48.8299 65.1273 47.2434 65.7465 45.3601C65.7556 45.3378 65.7632 45.3151 65.7696 45.2921C66.5717 43.0115 70.2882 43.9381 70.2989 43.9409C70.3867 43.962 70.4747 43.9613 70.5568 43.9432C70.4881 43.552 70.3804 43.1568 70.2286 42.7604C69.2217 42.5792 66.2417 42.2403 64.9975 44.2637C64.5123 43.977 63.7939 43.714 63.0187 43.9859C62.2678 41.0354 59.5123 42.1187 59.5037 42.122C59.2082 42.2315 59.0578 42.5607 59.1679 42.8562C59.2776 43.1517 59.6068 43.302 59.9021 43.1921C59.907 43.1903 61.5139 42.5565 61.9484 44.4563C60.9479 44.7342 58.9332 45.5598 58.6457 47.7413C58.6046 48.054 58.8251 48.3409 59.1381 48.3817C59.4507 48.4221 59.7375 48.2017 59.7784 47.8892C60.0348 45.9426 62.4104 45.5037 62.6618 45.4626C62.7848 45.4482 62.8943 45.3959 62.9796 45.3184C63.5778 44.8032 64.2168 45.1012 64.5593 45.3395C64.1276 46.9149 64.3432 48.3057 64.6306 49.247C61.8478 48.5887 60.2229 50.5218 60.0065 50.7999C59.984 50.8267 59.9632 50.8556 59.9454 50.8867C58.3461 53.6859 55.1046 52.601 54.0834 52.1696C53.9837 47.5849 48.787 48.5298 48.7717 48.5324C48.4604 48.5868 48.2515 48.8837 48.3059 49.1951C48.3604 49.5065 48.6572 49.7151 48.9686 49.6607C48.9798 49.659 52.684 48.9865 52.9293 52.0171C48.4965 52.5878 47.7125 56.5582 47.7101 56.5698C47.6471 56.879 47.8468 57.1809 48.1556 57.2437C48.4648 57.3068 48.7665 57.1074 48.8295 56.7982C48.8315 56.7887 49.4931 53.4343 53.4004 53.117C54.2628 53.5151 58.7006 55.3209 60.9214 51.4851C61.1015 51.2549 62.6475 49.4218 65.3889 50.7232C65.5343 50.7992 65.7097 50.8109 65.8679 50.7463L65.8686 50.7474C65.8728 50.746 67.4328 50.0931 67.4565 51.9748C67.4604 52.2899 67.719 52.5426 68.0343 52.5387C68.1992 52.5376 68.3465 52.466 68.4492 52.3532ZM66.62 38.6265C66.5893 38.6504 66.5553 38.6718 66.5187 38.6896C65.2221 39.3265 64.5329 40.8248 64.5311 40.829C64.3951 41.1148 64.0532 41.2362 63.7675 41.0999C63.4821 40.964 63.3607 40.6221 63.4967 40.3367C63.4989 40.3313 64.3446 38.4899 66.0095 37.6681C66.2823 38.1857 66.4153 38.4895 66.4153 38.4895C66.4856 38.5348 66.552 38.5809 66.62 38.6265ZM17.5475 33.3774C17.4179 33.6326 17.292 33.8965 17.1703 34.1698C17.1703 34.1698 16.9732 34.2429 16.6459 34.4009C16.6584 34.4288 16.6736 34.4567 16.6909 34.4834C16.864 34.7481 17.2187 34.8221 17.4836 34.6493C17.5901 34.5793 17.7542 34.5074 17.9606 34.4443C18.525 34.2717 19.3437 34.1788 20.1711 34.3543C20.9706 34.5235 21.7754 34.9526 22.3451 35.8235C22.452 35.9871 22.5506 36.1654 22.6404 36.3595C21.5751 36.5953 19.7421 37.3282 19.4707 39.5917C19.4337 39.9057 19.6581 40.1904 19.9721 40.2274C20.2862 40.2643 20.5711 40.0398 20.6079 39.7259C20.8479 37.7251 22.9103 37.436 23.3581 37.3965C25.3448 38.0235 25.4745 39.812 25.4753 39.8168C25.5023 40.1309 25.7792 40.3635 26.0931 40.3363C26.4071 40.3092 26.6395 40.0324 26.6126 39.7184C26.6118 39.711 26.4325 37.2735 23.8748 36.3656C23.7164 35.9203 23.5229 35.5324 23.3037 35.1967C22.5421 34.0323 21.4711 33.4596 20.4086 33.2348C19.3737 33.0153 18.3426 33.1337 17.6296 33.3517L17.5475 33.3774ZM13.4404 53.7274C13.732 54.1176 14.0329 54.469 14.342 54.7834C14.4657 54.6821 14.5464 54.5296 14.5514 54.3571C14.6006 52.6657 14.972 51.3218 15.7398 50.4068C16.3004 49.7379 17.0923 49.2865 18.1464 49.0826C18.2264 50.5042 18.7262 51.4442 19.402 51.9831C19.4129 51.9929 19.4243 52.0023 19.4362 52.0117C19.8398 52.3218 20.3003 52.4899 20.7718 52.5343C21.2314 52.577 21.6998 52.5006 22.1342 52.3217C23.0317 51.9517 23.7936 51.1407 24.0318 50.0453C24.0987 49.7363 23.9021 49.4313 23.5929 49.3648C23.2842 49.2979 22.9792 49.4946 22.9125 49.8035C22.7593 50.5085 22.2725 51.029 21.6998 51.2649C21.4329 51.3751 21.1489 51.4228 20.8751 51.397C20.6136 51.3726 20.3586 51.2793 20.135 51.1074C20.1257 51.1001 20.1157 51.0932 20.1064 51.0865C19.6604 50.7279 19.3318 50.0474 19.2834 48.9629L19.2909 48.9626C20.649 48.9243 21.0909 48.5906 21.0725 47.9545C21.0623 47.5979 20.85 47.2867 20.5821 46.8946C20.0259 46.0803 19.1211 44.7559 20.6806 42.8765C20.8823 42.6329 20.8484 42.272 20.6045 42.0707C20.3611 41.8688 20 41.9029 19.7986 42.1468C17.6896 44.6884 18.8957 46.4535 19.6378 47.5398C19.8012 47.7787 19.9306 47.9682 19.9311 47.9857C19.9343 48.1081 19.7596 47.8067 19.2593 47.821C17.2604 47.8781 15.824 48.5267 14.8625 49.6728C14.0186 50.6785 13.5665 52.0504 13.4404 53.7274ZM24.7518 56.3351C25.0832 56.1934 25.2698 56.0929 25.2698 56.0929C25.305 56.2829 25.3459 56.4688 25.3904 56.6517L25.4154 56.6457C25.7207 56.5654 25.9031 56.2524 25.8228 55.9471C25.5429 54.8903 25.7059 52.7484 26.8167 50.7868C27.5812 49.4374 28.7992 48.1874 30.6382 47.464C30.8117 47.4096 30.9411 47.2795 31.0014 47.1209C31.1568 46.7946 32.4282 44.2593 34.2317 44.6832C34.6693 44.8518 37.9637 46.0354 39.2426 44.0454C40.5453 44.1854 44.459 44.2578 45.0661 40.1804C46.7129 39.9703 52.0384 38.8856 52.4642 33.626C53.634 33.7687 55.9911 33.7037 57.4337 31.2693C57.5943 30.9973 57.504 30.6463 57.2321 30.4859C56.9601 30.3253 56.6092 30.4156 56.4482 30.6876C55.2137 32.7713 53.1034 32.5968 52.3532 32.4576C50.807 28.4028 47.2242 30.532 47.2136 30.5382C46.9404 30.6951 46.8464 31.044 47.0031 31.3171C47.16 31.5904 47.5092 31.6846 47.7823 31.5276C47.7893 31.5234 50.2932 30.0337 51.3443 33.034C51.2843 37.8229 46.5214 38.8363 44.9878 39.0388C43.6031 33.9879 39.4273 36.709 39.4151 36.7167C39.1481 36.8848 39.0679 37.2378 39.2359 37.5046C39.404 37.7717 39.7571 37.8518 40.0242 37.6838C40.0326 37.6784 43.0584 35.7054 43.9709 39.6954C43.5976 43.6315 39.3315 42.9173 39.0468 42.8651C38.7842 42.8084 38.5096 42.9438 38.4004 43.2003C37.7307 44.7763 34.9295 43.7285 34.6345 43.6134C34.6029 43.599 34.5698 43.5873 34.535 43.5787C34.3887 43.5423 34.2461 43.5178 34.1061 43.5035C33.2445 40.2093 35.1914 40.2263 35.197 40.2263C35.5123 40.2226 35.765 39.9637 35.7614 39.6484C35.7575 39.3332 35.4989 39.0809 35.1837 39.0846C35.1736 39.0846 31.8398 39.0699 32.9589 43.6246C31.4237 44.1138 30.4115 45.7885 30.0725 46.4285C27.9759 46.9223 27.6114 45.5159 27.6103 45.5118L27.6089 45.5121C27.5428 45.2631 27.3129 45.0824 27.0439 45.0885C25.6095 45.1273 25.6084 43.5803 25.6084 43.5762C25.6036 43.261 25.3439 43.0095 25.0287 43.0143C24.7134 43.0193 24.4618 43.279 24.4665 43.5942C24.4665 43.6012 24.4668 46.0163 26.6715 46.2178C26.8829 46.6303 27.3275 47.2442 28.179 47.5301C27.1498 48.2981 26.3809 49.2373 25.8228 50.2226C24.5526 52.4651 24.3831 54.9773 24.7168 56.2379C24.7257 56.2723 24.7378 56.3046 24.7518 56.3351ZM40.74 62.2851C40.6351 62.0718 40.6712 61.8071 40.8478 61.6295C41.2251 61.2521 41.5626 59.9529 41.4812 58.5674C41.4514 58.0581 41.3603 57.5451 41.1882 57.0743C41.0234 56.6228 40.7832 56.2092 40.4501 55.8762L40.4492 55.8751L40.4479 55.8762C39.8746 55.3026 39.0007 54.9495 37.7189 55.0171C37.6957 55.0198 37.6723 55.0215 37.6481 55.0215C37.617 55.0215 37.5864 55.0187 37.5565 55.014C37.2961 54.9853 35.0123 54.7815 35.1623 56.5846C35.1882 56.8998 34.9536 57.1768 34.6382 57.2026C34.3231 57.2284 34.0465 56.9942 34.0207 56.6788C33.8137 54.1949 35.9634 53.8581 37.075 53.8482V51.8157C33.6161 51.9915 34.69 47.9331 34.6928 47.9207C34.7707 47.6153 35.0814 47.431 35.3868 47.5087C35.6923 47.5867 35.8767 47.8973 35.7989 48.2028C35.7968 48.2107 35.0457 51.0532 37.5496 50.6088C37.6503 50.5913 37.7496 50.6013 37.8395 50.6334C38.2175 50.7395 42.0448 51.7246 43.5571 48.4709C42.1461 47.442 40.5245 48.4862 40.5179 48.4904C40.2507 48.6584 39.8978 48.5782 39.7296 48.3112C39.5618 48.0443 39.642 47.6913 39.9089 47.5232C39.9221 47.5148 44.5511 44.536 46.225 50.9206C46.304 51.2257 46.1206 51.5376 45.8151 51.6168C45.5098 51.6959 45.1979 51.5124 45.1189 51.207C44.9162 50.4345 44.6621 49.839 44.3775 49.3834C42.7692 52.2604 39.642 52.1198 38.2209 51.8829V53.8679C39.5771 53.9071 40.5618 54.3695 41.2581 55.0656L41.2567 55.0667C41.7171 55.5273 42.0437 56.0843 42.2628 56.6846C42.4748 57.2659 42.5864 57.8881 42.6226 58.5003C42.7214 60.1821 42.22 61.8554 41.6704 62.4226C41.4028 62.1982 41.2528 62.0323 41.2528 62.0323C41.0839 62.1206 40.9123 62.2042 40.74 62.2851ZM47.0829 45.6551C46.8445 45.8615 46.4834 45.8356 46.2768 45.5967C46.0706 45.3579 46.0965 44.9971 46.3353 44.7907C46.3428 44.7843 47.9923 43.3267 49.8971 43.4954C49.7309 42.5767 49.8425 41.621 50.2062 40.766C50.6414 39.7435 51.4367 38.8612 52.5475 38.3535C52.7381 38.2663 52.9387 38.1901 53.149 38.1262C54.5411 37.7026 55.4326 38.0798 55.9939 38.627C56.3037 37.4678 57.0007 36.0171 58.5679 35.2165C61.5557 33.6906 63.6928 36.4573 63.6992 36.4653C63.8932 36.7137 63.8489 37.0729 63.6004 37.2668C63.352 37.4607 62.9932 37.4165 62.799 37.1681C62.7946 37.1623 61.2304 35.1384 59.0876 36.2332C57.3965 37.0967 57.0047 38.9899 56.9143 39.879C58.4664 40.4203 57.9198 43.3471 57.9181 43.3563C57.8637 43.6679 57.5668 43.8765 57.2556 43.822C56.944 43.7676 56.7354 43.4712 56.7898 43.1593C56.7906 43.1529 57.2009 40.906 56.3346 40.9359C56.0537 40.9448 55.814 40.7488 55.7578 40.4832L55.7568 40.4838C55.7557 40.4785 55.3886 38.6384 53.48 39.2188C53.3212 39.2673 53.1679 39.3254 53.0218 39.3923C52.1864 39.7743 51.5873 40.4404 51.2582 41.2138C50.9275 41.9913 50.8687 42.8746 51.1157 43.6862C51.135 43.7503 51.1564 43.814 51.1804 43.8776C51.9528 44.2878 52.7175 45.0595 53.3876 46.3849C53.5298 46.6667 53.4165 47.0106 53.1345 47.1526C52.8528 47.2949 52.509 47.1815 52.3668 46.8995C50.2995 42.8113 47.092 45.6471 47.0829 45.6551ZM55.812 59.0359C55.6586 59.3113 55.3109 59.4106 55.035 59.2574C54.7595 59.104 54.6603 58.7563 54.8134 58.4804C54.8198 58.4692 56.9268 54.5948 59.8942 56.259C60.4828 55.6332 61.7848 54.5513 63.689 54.6395C66.6657 54.7778 66.3059 57.2424 66.305 57.2493C66.2642 57.562 65.9773 57.7828 65.6646 57.7417C65.3523 57.7009 65.1317 57.4142 65.1723 57.1015C65.1729 57.0981 65.3565 55.8609 63.6398 55.7813C62.194 55.7143 61.2059 56.5279 60.755 57.0045C62.6554 59.4949 59.8612 62.0602 59.8526 62.0679C59.6228 62.2842 59.2609 62.2731 59.0446 62.0434C58.8282 61.8132 58.8392 61.4512 59.0693 61.2349C59.0756 61.229 61.2834 59.199 59.6307 57.4462C57.502 55.9335 55.8167 59.027 55.812 59.0359Z" fill="#EC4B53"/>
    <path d="M46.1062 62.1919C46.4782 63.0138 45.8757 63.0949 45.7888 63.4363C46.3477 63.9641 48.7709 65.2685 50.5379 66.7808C52.6813 68.6156 52.3541 69.3467 53.7798 69.4316C54.5044 69.4745 56.0252 69.1555 55.9013 68.1291C55.679 66.291 52.3762 63.3288 52.3762 63.3288C52.3762 63.3288 52.3794 63.3302 52.3863 63.3336L51.0396 62.223C49.4421 63.3533 47.784 63.0125 46.1062 62.1919Z" fill="#F5A209"/>
    <path d="M46.1062 62.1918C47.0618 63.234 51.9556 67.2671 52.9487 68.3988C53.9415 69.5305 55.7609 68.4202 55.2889 67.1413C54.8167 65.8619 51.0396 62.2229 51.0396 62.2229C51.0764 62.2454 50.8389 62.0572 50.705 61.9468C48.5667 63.1535 47.1557 62.2272 46.1062 62.1918Z" fill="#FBB429"/>
    <path d="M17.5429 6.23804C11.3062 6.23804 6.25024 11.2938 6.25024 17.5305C6.25024 23.7674 11.3062 28.8235 17.5429 28.8235C19.3527 28.8235 21.0634 28.3973 22.5793 27.6402L28.3202 30.9463L24.8054 26.1779C27.2698 24.1066 28.8359 21.0016 28.8359 17.5307C28.8357 11.2938 23.7799 6.23804 17.5429 6.23804Z" fill="#20D0C2"/>
    <path d="M12.3486 14.1553C12.3486 13.4988 12.5613 12.8316 12.9836 12.1541C13.406 11.4802 14.0232 10.9194 14.8322 10.4758C15.6449 10.0323 16.5883 9.8125 17.6707 9.8125C18.6746 9.8125 19.5619 9.99672 20.3318 10.3694C21.0983 10.7383 21.6907 11.2422 22.1094 11.8809C22.528 12.5159 22.7375 13.2111 22.7375 13.9563C22.7375 14.5455 22.6171 15.0633 22.3789 15.5067C22.1416 15.9505 21.8575 16.3334 21.5279 16.6528C21.201 16.9759 20.6124 17.5184 19.7605 18.2814C19.5232 18.4941 19.3349 18.6823 19.193 18.8459C19.0508 19.0087 18.9447 19.158 18.8769 19.2928C18.8064 19.4277 18.7532 19.5625 18.7141 19.697C18.6783 19.832 18.6182 20.0698 18.5439 20.4102C18.4124 21.1305 18.0008 21.4891 17.3054 21.4891C16.9469 21.4891 16.6418 21.3722 16.3972 21.138C16.1486 20.8998 16.0282 20.5523 16.0282 20.0877C16.0282 19.5056 16.1169 19.0019 16.2975 18.5761C16.4789 18.15 16.7164 17.7777 17.0146 17.4548C17.3127 17.132 17.7172 16.7489 18.2208 16.3053C18.6643 15.9187 18.9874 15.6239 19.1824 15.4289C19.3813 15.2303 19.5479 15.01 19.6824 14.7691C19.8174 14.5277 19.8847 14.2614 19.8847 13.9777C19.8847 13.4242 19.6789 12.9558 19.2675 12.5763C18.8522 12.1964 18.3236 12.005 17.6707 12.005C16.908 12.005 16.3474 12.1966 15.9854 12.5831C15.6269 12.9667 15.3218 13.5344 15.0735 14.283C14.8357 15.0636 14.3889 15.4536 13.7322 15.4536C13.3419 15.4536 13.0157 15.3189 12.7494 15.0423C12.4835 14.7692 12.3486 14.4744 12.3486 14.1553ZM17.4189 25.5447C16.9968 25.5447 16.6279 25.4059 16.3119 25.133C15.9964 24.8598 15.8399 24.4766 15.8399 23.9833C15.8399 23.547 15.9925 23.1814 16.2975 22.8833C16.6027 22.5853 16.9755 22.4362 17.4189 22.4362C17.8555 22.4362 18.2241 22.5853 18.5225 22.8833C18.8202 23.1812 18.9694 23.5469 18.9694 23.9833C18.9694 24.4697 18.8135 24.8527 18.5013 25.1294C18.1886 25.4059 17.8305 25.5447 17.4189 25.5447Z" fill="white"/>
    <path d="M63.4568 6.23804C69.6938 6.23804 74.7498 11.2938 74.7498 17.5305C74.7498 23.7674 69.6938 28.8235 63.4568 28.8235C61.647 28.8235 59.9368 28.3973 58.4209 27.6402L52.6798 30.9463L56.1945 26.1779C53.7302 24.1066 52.1643 21.0016 52.1643 17.5307C52.1643 11.2938 57.2201 6.23804 63.4568 6.23804Z" fill="#20D0C2"/>
    <path d="M62.0633 18.6343L61.715 13.4399C61.6522 12.4284 61.6189 11.6987 61.6189 11.2577C61.6189 10.6574 61.7745 10.1907 62.0892 9.85367C62.4042 9.51648 62.8155 9.34961 63.3267 9.34961C63.9491 9.34961 64.3642 9.56461 64.5716 9.99445C64.7828 10.4243 64.8866 11.0466 64.8866 11.8545C64.8866 12.3323 64.8608 12.8177 64.8123 13.3102L64.3455 18.6566C64.2939 19.2937 64.1861 19.7829 64.0195 20.1237C63.8566 20.4609 63.5826 20.6313 63.1972 20.6313C62.8084 20.6313 62.5378 20.4682 62.3859 20.1385C62.2376 19.8087 62.1264 19.3085 62.0633 18.6343ZM63.2639 25.7774C62.8228 25.7774 62.4375 25.6329 62.1116 25.3476C61.7819 25.0623 61.6189 24.6623 61.6189 24.1471C61.6189 23.699 61.7745 23.3171 62.0892 23.0023C62.4042 22.6876 62.7859 22.532 63.2415 22.532C63.6972 22.532 64.0825 22.6876 64.4047 23.0023C64.7272 23.3173 64.8866 23.699 64.8866 24.1471C64.8866 24.6549 64.7234 25.0548 64.4012 25.344C64.075 25.6329 63.6972 25.7774 63.2639 25.7774Z" fill="white"/>
    <path d="M40.4833 20.9067C40.4387 20.9528 40.3764 20.9816 40.3073 20.9816H40.3009H40.0605C39.987 20.9816 39.9212 20.9492 39.8764 20.898C39.8139 20.8856 39.755 20.8602 39.7022 20.8247C39.668 20.8013 39.6364 20.7733 39.609 20.7421C39.527 20.7172 39.4545 20.6708 39.3967 20.6088C39.3195 20.526 39.2694 20.4144 39.262 20.2922H39.2486C39.1133 20.2922 38.99 20.2338 38.902 20.1391C38.8186 20.0492 38.7664 19.926 38.7664 19.792C38.7664 19.7383 38.7753 19.6858 38.7919 19.6356C38.7226 19.5528 38.6817 19.4513 38.6817 19.3411C38.6817 19.2475 38.7108 19.1613 38.7614 19.0869C38.7108 19.0128 38.6817 18.9261 38.6817 18.8325C38.6817 18.7389 38.7104 18.6522 38.7612 18.5783C38.7104 18.5041 38.6817 18.4174 38.6817 18.3239C38.6817 18.1822 38.7437 18.2044 38.7236 18.1974L38.7228 18.1967L38.7226 18.1974C38.5869 18.1488 38.4586 18.1028 38.4586 17.71V16.0564C37.7894 15.6897 37.2251 15.1491 36.8262 14.4942C36.4137 13.8172 36.1753 13.0188 36.1753 12.1652C36.1753 10.948 36.6589 9.84471 37.4409 9.04533C38.2237 8.24549 39.3056 7.75049 40.5001 7.75049C41.6945 7.75049 42.7764 8.24533 43.5594 9.04533C44.3414 9.84471 44.8255 10.9477 44.8255 12.1652C44.8255 12.9742 44.6115 13.7335 44.2386 14.3861L44.23 14.3999C43.8681 15.028 43.3579 15.5567 42.7494 15.9355V17.7099C42.7494 18.3342 42.4998 18.3108 42.2579 18.288L42.257 18.2878V18.288C42.2259 18.2852 42.3183 18.2941 42.3183 18.3238C42.3183 18.4172 42.29 18.5039 42.2392 18.5781C42.2898 18.6521 42.3183 18.7388 42.3183 18.8324C42.3183 18.9253 42.2895 19.0122 42.239 19.0864C42.2895 19.1605 42.3183 19.2474 42.3183 19.341C42.3183 19.4511 42.2773 19.5524 42.2087 19.6353C42.225 19.685 42.2336 19.7378 42.2336 19.7919C42.2336 19.9255 42.1817 20.048 42.0984 20.138L42.0976 20.1383L42.0984 20.1391C42.0105 20.2331 41.888 20.2919 41.7515 20.2919H41.7383C41.7311 20.4133 41.6809 20.5244 41.604 20.6072L41.6033 20.608L41.604 20.6083C41.5465 20.6702 41.4742 20.7164 41.3929 20.7414C41.365 20.7736 41.3333 20.8019 41.2981 20.8255L41.2755 20.8394C41.2273 20.8683 41.1744 20.8888 41.1187 20.8991C41.074 20.9499 41.0086 20.9814 40.9358 20.9814H40.9295H40.6887C40.6197 20.9814 40.5575 20.9527 40.5128 20.9066L40.4833 20.9067ZM40.0537 20.4186H40.0603C40.105 20.4186 40.1472 20.4308 40.1839 20.4522C40.22 20.4308 40.262 20.4186 40.3073 20.4186H40.6826H40.6887C40.734 20.4186 40.7764 20.4308 40.8123 20.4522C40.8487 20.4308 40.8908 20.4186 40.9358 20.4186H41.0269C41.0648 20.3333 41.1498 20.2739 41.2487 20.2731C41.2498 20.2705 41.2508 20.2666 41.2508 20.2619C41.2508 20.2575 41.2498 20.2535 41.2487 20.2508L41.2473 20.2488C41.1837 20.2049 41.1417 20.131 41.1417 20.048C41.1417 19.9131 41.2512 19.8038 41.3861 19.8038H41.7433C41.7444 19.8006 41.7451 19.7966 41.7451 19.792L41.7444 19.7841L41.7425 19.7806L41.7414 19.7783L41.7417 19.7781C41.6978 19.7492 41.6631 19.706 41.645 19.6524C41.6025 19.5247 41.6709 19.3866 41.7986 19.3442L41.8059 19.3413C41.7908 19.3353 41.772 19.3317 41.7506 19.3311H41.7473V19.0902C41.73 19.0391 41.7306 18.9844 41.7473 18.9344V18.8428H41.7505C41.7709 18.8425 41.7887 18.8386 41.804 18.8328C41.7889 18.8266 41.7709 18.823 41.7505 18.8228H41.7473V18.5846C41.7287 18.5321 41.7292 18.475 41.7473 18.423V18.3341H41.7506C41.7789 18.3339 41.8033 18.3272 41.8203 18.317L41.8278 18.3108L41.8279 18.3111L41.8286 18.3125L41.8294 18.3136V18.3127C41.8325 17.7592 42.064 17.7811 42.3023 17.8036C42.319 17.8053 42.2608 17.7981 42.2608 17.71V15.7985H42.2611C42.2612 15.7141 42.3047 15.6327 42.3826 15.5874C42.972 15.2472 43.465 14.7519 43.8075 14.1571L43.8147 14.1438C44.1462 13.5633 44.3364 12.8871 44.3364 12.1653C44.3364 11.0794 43.9065 10.0971 43.212 9.38721C42.5176 8.67799 41.559 8.23908 40.4998 8.23908C39.4408 8.23908 38.482 8.67799 37.7879 9.38721C37.0931 10.0971 36.6631 11.0794 36.6631 12.1653C36.6631 12.9281 36.875 13.6394 37.2419 14.2405C37.6172 14.8564 38.1545 15.3581 38.7917 15.6828C38.8826 15.7186 38.9464 15.8067 38.9464 15.9102V17.7103C38.9464 17.7591 38.8551 17.7269 38.8861 17.7378C39.0222 17.7864 39.1667 17.8397 39.1697 18.3099L39.1711 18.311C39.1889 18.3247 39.2164 18.3338 39.249 18.3341H39.2522V18.5755C39.2692 18.6263 39.2689 18.6803 39.2522 18.7303V18.8228H39.249C39.2283 18.823 39.21 18.8266 39.1945 18.8327C39.21 18.8386 39.2286 18.8421 39.249 18.8428H39.2522V19.0842C39.2692 19.1347 39.2689 19.1891 39.2522 19.2389V19.331H39.249C39.2281 19.3316 39.2098 19.3353 39.1944 19.3414L39.1958 19.3421C39.2479 19.3583 39.2947 19.3916 39.3269 19.4402C39.4009 19.5524 39.3703 19.7038 39.258 19.7781L39.2569 19.7805L39.2559 19.7799V19.7805C39.255 19.7819 39.2547 19.7863 39.2547 19.7919C39.2547 19.7964 39.2554 19.8008 39.2565 19.8036H39.6133V19.8042C39.6903 19.8042 39.7661 19.8411 39.8136 19.9094C39.8897 20.02 39.862 20.1714 39.7517 20.2477L39.7514 20.2486L39.7511 20.2506L39.7504 20.2505C39.7495 20.2528 39.7492 20.2566 39.7492 20.2617C39.7492 20.2671 39.7501 20.271 39.7514 20.2741C39.844 20.2744 39.932 20.3285 39.9722 20.4181L39.9725 20.4185L40.0537 20.4186ZM39.1701 18.3241C39.1701 18.3327 39.1708 18.3114 39.1714 18.3117L39.1701 18.3138V18.3241ZM41.8289 19.3538L41.8286 19.3536L41.8284 19.3539L41.8289 19.3538ZM41.7415 19.8074L41.7419 19.8072L41.7411 19.8069L41.7415 19.8074ZM41.2473 20.2766L41.2475 20.2764H41.2467L41.2473 20.2766Z" fill="white"/>
    <path d="M39.2592 12.1654L39.9635 17.3389H40.5H41.0364L41.7689 12.0618L42.0451 12.0264L41.2865 17.4921L41.2703 17.6082H41.1534H40.5H39.8464H39.7296L39.7134 17.4921L38.9929 12.2026L39.2592 12.1654Z" fill="white"/>
    <path d="M40.8871 11.3899L40.8008 11.9804L43.0173 11.6493L40.0127 12.903L40.1233 12.091L38.1521 12.4649L40.8871 11.3899Z" fill="white"/>
    <path d="M35.5057 19.0857L37.3513 16.551C37.4214 16.4549 37.5574 16.4335 37.6539 16.5036L37.6543 16.504C37.7504 16.574 37.7721 16.7099 37.7018 16.8066L35.8555 19.3407C35.7855 19.4374 35.6496 19.4588 35.5533 19.3883L35.5532 19.3882C35.4566 19.318 35.435 19.1821 35.5057 19.0857ZM46.1952 16.215L44.911 15.3155C44.8132 15.2474 44.6629 15.2621 44.6093 15.3688L44.6091 15.3696C44.5558 15.4758 44.5647 15.6027 44.6625 15.6707L45.9463 16.5702C46.0439 16.6385 46.1954 16.624 46.248 16.5171L46.2488 16.5168C46.3013 16.4099 46.2932 16.2833 46.1952 16.215ZM45.4946 19.0857C45.5647 19.1822 45.5433 19.3182 45.4469 19.3883L45.4468 19.3885C45.3502 19.4588 45.2143 19.4375 45.1441 19.3408L43.2983 16.8068C43.228 16.71 43.2493 16.5741 43.346 16.5041V16.5038C43.4427 16.4336 43.5786 16.455 43.6486 16.5511L45.4946 19.0857ZM45.9054 7.70426L44.7164 8.72614C44.6258 8.80379 44.6033 8.95379 44.693 9.03207H44.6938C44.7838 9.11004 44.9088 9.1327 44.9989 9.05504L46.1877 8.03301C46.278 7.95567 46.3013 7.80551 46.2108 7.7277L46.2107 7.72692C46.1204 7.64973 45.9958 7.62645 45.9054 7.70426ZM47.5104 11.9513L45.9441 12.0194C45.8252 12.0246 45.7144 12.1283 45.7372 12.2454L45.7374 12.2457C45.7599 12.3625 45.8439 12.4579 45.9629 12.4525L47.5289 12.3843C47.6479 12.3791 47.7591 12.2757 47.7361 12.1586L47.7364 12.1577C47.7132 12.0408 47.6299 11.9458 47.5104 11.9513ZM44.9697 4.86301C45.0304 4.76004 45.1635 4.7252 45.2663 4.78598C45.3691 4.84629 45.4041 4.97911 45.3439 5.08239L43.7571 7.78692C43.6968 7.88942 43.5641 7.92473 43.4607 7.86442L43.4608 7.86364C43.3575 7.80364 43.3229 7.67067 43.3835 7.5677L44.9697 4.86301ZM48.5139 9.09223C48.6246 9.04786 48.751 9.10239 48.795 9.21364C48.8393 9.32426 48.7852 9.45083 48.6746 9.49504L45.7622 10.6572C45.6519 10.7016 45.5252 10.6472 45.4811 10.5368L45.4813 10.536C45.4368 10.4254 45.4907 10.2988 45.6016 10.2549L48.5139 9.09223ZM48.7171 14.6066L45.7043 13.7379C45.59 13.7047 45.4693 13.7711 45.4366 13.886L45.436 13.8863C45.4032 14.0008 45.4699 14.1213 45.5841 14.1543L48.5969 15.0232C48.7116 15.0561 48.8318 14.9896 48.865 14.8749L48.8649 14.8746C48.8983 14.7602 48.8318 14.6396 48.7171 14.6066ZM42.0558 5.36645L41.7446 6.9027C41.7208 7.02004 41.7949 7.15207 41.9138 7.15848L41.9139 7.15832C42.0329 7.16442 42.1455 7.10598 42.1694 6.98911L42.4805 5.45301C42.5041 5.33614 42.4304 5.20286 42.3113 5.19739L42.3105 5.19708C42.1918 5.19145 42.0793 5.24926 42.0558 5.36645ZM40.271 3.66083L40.2957 6.79614C40.2964 6.91504 40.3946 7.01161 40.5143 7.01051L40.5144 7.01082C40.6338 7.00973 40.7297 6.91129 40.7289 6.79239L40.7044 3.65676C40.7035 3.53754 40.6049 3.44161 40.4858 3.44239C40.3664 3.4427 40.27 3.54067 40.271 3.66083ZM38.9443 5.36645L39.2552 6.9027C39.2794 7.02004 39.205 7.15207 39.0863 7.15848L39.0857 7.15832C38.9668 7.16442 38.8541 7.10598 38.8305 6.98911L38.5193 5.45301C38.4955 5.33614 38.5696 5.20286 38.6885 5.19739L38.6893 5.19708C38.8083 5.19145 38.9208 5.24926 38.9443 5.36645ZM36.0304 4.86301L37.6164 7.5677C37.6769 7.67067 37.6421 7.80364 37.5388 7.86364L37.5391 7.86442C37.436 7.92473 37.303 7.88942 37.243 7.78692L35.6561 5.08239C35.5958 4.97926 35.631 4.84629 35.7338 4.78598C35.8366 4.7252 35.9697 4.76004 36.0304 4.86301ZM35.0947 7.70426C35.0043 7.62629 34.8797 7.64973 34.7894 7.72692L34.7893 7.7277C34.6985 7.80567 34.7218 7.95567 34.8121 8.03301L36.0011 9.05504C36.0914 9.13254 36.2164 9.10989 36.3063 9.03207H36.3066C36.3966 8.95379 36.3743 8.80395 36.2832 8.72614L35.0947 7.70426ZM32.4861 9.09223L35.3986 10.255C35.5091 10.299 35.5636 10.4254 35.5189 10.5361L35.5191 10.5369C35.4747 10.6474 35.3483 10.7018 35.238 10.6574L32.3255 9.4952C32.2144 9.45098 32.1607 9.32442 32.205 9.21379C32.2489 9.10239 32.3754 9.04786 32.4861 9.09223ZM33.4896 11.9513L35.0557 12.0194C35.175 12.0246 35.2854 12.1283 35.2629 12.2454L35.2627 12.2457C35.2402 12.3625 35.1558 12.4579 35.0369 12.4525L33.4708 12.3843C33.3519 12.3791 33.2408 12.2757 33.2638 12.1586L33.2635 12.1577C33.2868 12.0408 33.3702 11.9458 33.4896 11.9513ZM32.2829 14.6066L35.2955 13.7379C35.41 13.7047 35.5308 13.7711 35.5636 13.886V13.8863C35.5968 14.0008 35.53 14.1213 35.4155 14.1543L32.4027 15.0232C32.2882 15.0561 32.1682 14.9896 32.1349 14.8749L32.135 14.8746C32.1018 14.7602 32.1683 14.6396 32.2829 14.6066ZM34.805 16.215C34.7071 16.2833 34.6985 16.4099 34.7516 16.5168L34.7519 16.5171C34.805 16.624 34.9561 16.6385 35.0535 16.5702L36.3377 15.6707C36.4349 15.6027 36.4438 15.4758 36.391 15.3696L36.3904 15.3688C36.3369 15.2622 36.1864 15.2474 36.0888 15.3155L34.805 16.215Z" fill="white"/>
  </g>
  <defs>
    <clipPath id="clip0_126_51">
      <rect width="80" height="80" fill="white" transform="translate(0.5)"/>
    </clipPath>
  </defs>
</svg>