<svg xmlns="http://www.w3.org/2000/svg" width="81" height="80" viewBox="0 0 81 80" fill="none">
  <g clip-path="url(#clip0_126_72)">
    <path d="M80.5 40C80.5 45.4775 79.3995 50.6972 77.4045 55.4514C73.1156 65.6881 64.6911 73.7616 54.2209 77.5836C49.9416 79.1478 45.3213 80 40.5 80C37.8942 80 35.3473 79.7502 32.8805 79.2752C27.282 78.1959 22.0984 75.9478 17.5939 72.7952C11.7587 68.7119 7.065 63.1119 4.08203 56.5683C1.78156 51.52 0.5 45.9086 0.5 40C0.5 38.0539 0.63875 36.1387 0.908125 34.2678C2.04609 26.3412 5.50734 19.1625 10.58 13.4498C17.9073 5.19844 28.5963 0 40.5 0C47.5205 0 54.118 1.80891 59.8534 4.98609C63.3277 6.90937 66.4869 9.33719 69.2281 12.1698C70.0853 13.0531 70.9016 13.9756 71.6739 14.9356C71.922 15.2442 72.1653 15.5544 72.4037 15.8711C73.7017 17.5822 74.8642 19.4025 75.8748 21.3144C78.2014 25.7063 79.7311 30.583 80.2764 35.7536C80.4248 37.1494 80.5 38.5648 80.5 40Z" fill="#5897D1"/>
    <path d="M70.8735 30.3734C70.8735 34.5328 70.0379 38.4963 68.523 42.1061C65.2661 49.8792 58.8691 56.0095 50.9188 58.9119C47.6694 60.0995 44.1612 60.7467 40.5001 60.7467C38.5215 60.7467 36.5874 60.557 34.7143 60.1964C30.4632 59.377 26.5272 57.6698 23.1066 55.2759C18.6758 52.1753 15.1115 47.9231 12.8465 42.9544C11.0997 39.1211 10.1265 34.8602 10.1265 30.3736C10.1266 13.5986 23.7252 0 40.5001 0C57.2749 0 70.8735 13.5986 70.8735 30.3734Z" fill="#9FC5E6"/>
    <path d="M70.7988 4.11115V12.418C70.7988 13.5054 69.9173 14.3869 68.8299 14.3869H54.9573V2.14209H68.8299C69.9173 2.14209 70.7988 3.02381 70.7988 4.11115Z" fill="#FF668C"/>
    <path d="M54.2208 77.5837C49.9416 79.1479 45.3213 80.0001 40.5 80.0001C24.3188 80.0001 10.3808 70.392 4.08203 56.5682L16.6714 39.8237C18.9636 36.7756 23.5383 36.7756 25.8289 39.8237L32.9978 49.3599L54.2208 77.5837Z" fill="#343A6E"/>
    <path d="M68.9081 6.73475C68.9081 7.58053 68.2223 8.26459 67.3783 8.26459H62.0575C61.6347 8.26459 61.2527 8.436 60.975 8.7135C60.6991 8.991 60.5277 9.37303 60.5277 9.796C60.5277 10.6401 61.2117 11.3258 62.0575 11.3258H63.8942C64.317 11.3258 64.6991 11.4972 64.9767 11.7747C65.2542 12.0507 65.4256 12.4343 65.4256 12.8572C65.4256 13.7013 64.7398 14.3871 63.8942 14.3871H54.957V2.14209H63.677C64.0998 2.14209 64.4819 2.3135 64.7595 2.591C65.0355 2.8685 65.2069 3.25053 65.2069 3.6735C65.2069 4.51928 65.8927 5.20334 66.7383 5.20334H67.3783C68.2225 5.20334 68.9081 5.88897 68.9081 6.73475Z" fill="#EF487D"/>
    <path d="M54.0192 0.000244141C53.2753 0.000244141 52.6724 0.603213 52.6724 1.34712V35.2024H55.3661V1.34712C55.366 0.603213 54.763 0.000244141 54.0192 0.000244141Z" fill="#F9DF73"/>
    <path d="M77.4046 55.4514C77.0487 56.2987 76.6651 57.1329 76.2535 57.9493C71.7066 66.9959 63.8242 74.0783 54.2209 77.5836C49.9417 79.1478 45.3213 80 40.5001 80C37.8943 80 35.3474 79.7501 32.8806 79.2751C28.9606 78.5192 25.2446 77.1903 21.8226 75.3797C20.3565 74.6042 18.9459 73.7404 17.594 72.7951L48.5441 31.6311C51.2854 27.9853 56.7531 27.9853 59.4943 31.6311L77.4046 55.4514Z" fill="#484B7F"/>
    <path d="M54.0201 28.8962C52.9702 28.8962 51.9206 29.8073 51.2185 31.6309L32.8806 79.2751C27.2821 78.1959 22.0985 75.9478 17.594 72.7951L48.5459 31.6311C49.9156 29.8073 51.9679 28.8962 54.0201 28.8962Z" fill="#343A6E"/>
    <path d="M76.2534 57.9493C71.7066 66.9958 63.8241 74.0782 54.2208 77.5835C49.9416 79.1477 45.3213 79.9999 40.5 79.9999C37.8942 79.9999 35.3474 79.75 32.8805 79.275C28.9605 78.5191 25.2445 77.1902 21.8225 75.3796L42.1409 55.218C38.9769 63.4385 47.9434 65.5691 57.2495 62.1405C65.7881 58.9941 66.6975 55.6407 76.2534 57.9493Z" fill="#343A6E"/>
    <path d="M32.998 49.3599C28.2307 49.5248 23.5269 52.3445 20.5165 52.3445C15.8634 52.3445 10.3613 48.2171 16.6716 39.8237C18.9638 36.7756 23.5385 36.7756 25.8291 39.8237L32.998 49.3599Z" fill="#484B7F"/>
  </g>
  <defs>
    <clipPath id="clip0_126_72">
      <rect width="80" height="80" fill="white" transform="translate(0.5)"/>
    </clipPath>
  </defs>
</svg>