<svg width="50" height="51" viewBox="0 0 50 51" fill="none" xmlns="http://www.w3.org/2000/svg">
<g id="pdf.svg" clip-path="url(#clip0_1_95)">
<g id="Group">
<path id="Vector" d="M6.24994 0.5H32.8014L46.8749 14.5188V47.375C46.8749 49.1015 45.4749 50.5 43.7499 50.5H6.24994C4.52489 50.5 3.12497 49.1015 3.12497 47.375V3.62497C3.12497 1.89847 4.52505 0.5 6.24994 0.5Z" fill="#E2574C"/>
<path id="Vector_2" d="M46.8297 14.5625H35.9375C34.2125 14.5625 32.8126 13.1626 32.8126 11.4375V0.53125L46.8297 14.5625Z" fill="#B53629"/>
<path id="Vector_3" d="M35.1531 24.1921C35.6766 24.1921 35.9329 23.7359 35.9329 23.2937C35.9329 22.8359 35.6656 22.3937 35.1531 22.3937H32.1719C31.589 22.3937 31.2641 22.8764 31.2641 23.4093V30.7358C31.2641 31.389 31.6359 31.7514 32.1391 31.7514C32.6391 31.7514 33.0126 31.389 33.0126 30.7358V28.7249H34.8157C35.3751 28.7249 35.6548 28.2671 35.6548 27.8125C35.6548 27.3672 35.3751 26.9249 34.8157 26.9249H33.0126V24.1921H35.1531ZM25.0765 22.3937H22.8953C22.3031 22.3937 21.8827 22.8 21.8827 23.403V30.7421C21.8827 31.4905 22.4874 31.7249 22.9202 31.7249H25.2093C27.9186 31.7249 29.7077 29.9422 29.7077 27.1905C29.7062 24.2812 28.0219 22.3937 25.0765 22.3937ZM25.1813 29.9157H23.8516V24.2031H25.05C26.8642 24.2031 27.6531 25.4203 27.6531 27.1C27.6531 28.6719 26.8781 29.9157 25.1813 29.9157ZM17.1906 22.3937H15.0297C14.4188 22.3937 14.0781 22.7967 14.0781 23.4093V30.7358C14.0781 31.389 14.4687 31.7514 14.9937 31.7514C15.5186 31.7514 15.9092 31.389 15.9092 30.7358V28.5967H17.2639C18.9357 28.5967 20.3155 27.4123 20.3155 25.5077C20.3156 23.6437 18.9844 22.3937 17.1906 22.3937ZM17.1548 26.8782H15.9094V24.114H17.1548C17.9235 24.114 18.4126 24.714 18.4126 25.4968C18.411 26.2782 17.9235 26.8782 17.1548 26.8782Z" fill="white"/>
</g>
</g>
<defs>
<clipPath id="clip0_1_95">
<rect width="50" height="50" fill="white" transform="translate(0 0.5)"/>
</clipPath>
</defs>
</svg>
